<svg width="10" height="14" viewBox="0 0 10 14" fill="none" xmlns="http://www.w3.org/2000/svg">
<path d="M9.27735 0.416025C9.50711 0.262849 9.5692 -0.0475858 9.41603 -0.27735C9.26285 -0.507114 8.95241 -0.569201 8.72265 -0.416025L9.27735 0.416025ZM8.72265 12.416C8.95241 12.5692 9.26285 12.5071 9.41603 12.2774C9.5692 12.0476 9.50711 11.7372 9.27735 11.584L8.72265 12.416ZM1.24808 6.83205L0.970725 7.24808L1.24808 6.83205ZM8.72265 -0.416025L0.970725 4.75192L1.52543 5.58398L9.27735 0.416025L8.72265 -0.416025ZM0.970725 7.24808L8.72265 12.416L9.27735 11.584L1.52543 6.41603L0.970725 7.24808ZM0.970725 4.75192C0.0801251 5.34566 0.080126 6.65434 0.970725 7.24808L1.52543 6.41603C1.22856 6.21811 1.22856 5.78189 1.52543 5.58398L0.970725 4.75192Z" transform="translate(0 1)" fill="#F87153"/>
</svg>
