<svg width="13" height="17" viewBox="0 0 13 17" fill="none" xmlns="http://www.w3.org/2000/svg">
  <path d="M5.2 0C4.85977 0 4.51191 0.124308 4.26562 0.380859C4.01934 0.63741 3.9 0.999756 3.9 1.35417V2.03125H0V3.38542H0.65V14.2188C0.65 15.3322 1.53105 16.25 2.6 16.25H10.4C11.4689 16.25 12.35 15.3322 12.35 14.2188V3.38542H13V2.03125H9.1V1.35417C9.1 0.999756 8.98066 0.63741 8.73438 0.380859C8.48809 0.124308 8.14023 0 7.8 0H5.2ZM5.2 1.35417H7.8V2.03125H5.2V1.35417ZM1.95 3.38542H11.05V14.2188C11.05 14.5943 10.7605 14.8958 10.4 14.8958H2.6C2.23945 14.8958 1.95 14.5943 1.95 14.2188V3.38542ZM3.25 5.41667V12.8646H4.55V5.41667H3.25ZM5.85 5.41667V12.8646H7.15V5.41667H5.85ZM8.45 5.41667V12.8646H9.75V5.41667H8.45Z" fill="#F87153"/>
</svg>
