<svg width="12" height="12" viewBox="0 0 12 12" fill="none" xmlns="http://www.w3.org/2000/svg">
  <path d="M9.91414 0C9.65826 0 9.40236 0.0977187 9.2071 0.292969L8.50007 1L11.0001 3.5L11.7071 2.79297C12.0976 2.40247 12.0976 1.76941 11.7071 1.37891L10.6212 0.292969C10.4259 0.0977187 10.17 0 9.91414 0ZM7.50006 2L1.50001 8L2.25002 8.25L2.50002 9.5L3.75003 9.75L4.00003 10.5L10.0001 4.5L7.50006 2ZM0.576179 10.0762L0.0185576 11.6543C0.00615254 11.6847 -0.000152234 11.7172 2.79089e-06 11.75C2.79089e-06 11.8163 0.0263423 11.8799 0.0732267 11.9268C0.120111 11.9737 0.1837 12 0.250005 12C0.281047 12.0001 0.311845 11.9945 0.340826 11.9834L1.92385 11.4238L0.576179 10.0762Z" fill="#F87153"/>
</svg>
